<svg width="823" height="417" viewBox="0 0 823 417" fill="none" xmlns="http://www.w3.org/2000/svg">
<mask id="mask0_634_98" style="mask-type:luminance" maskUnits="userSpaceOnUse" x="0" y="0" width="823" height="417">
<path d="M0 0V417H823V0H0Z" fill="white"/>
</mask>
<g mask="url(#mask0_634_98)">
<path d="M0 228V-170H823V228H0Z" fill="#181D2A"/>
<path d="M49.7583 230V414H655.813V230H49.7583Z" fill="#181D2A"/>
<mask id="mask1_634_98" style="mask-type:luminance" maskUnits="userSpaceOnUse" x="49" y="228" width="607" height="184">
<path d="M49.7583 228V412H655.813V228H49.7583Z" fill="white"/>
</mask>
<g mask="url(#mask1_634_98)">
<path d="M655.813 235H49.7583V221H655.813V235Z" fill="#2D68FF"/>
</g>
<path d="M544.354 -165H275.66L257.747 -139L396.075 95.5H434.389L566.248 -139L544.354 -165Z" fill="#1A1F2C" stroke="#2D68FF" stroke-width="7"/>
<path d="M319.945 327L368.708 416.5H159.226L217.941 327H319.945Z" fill="#212430" stroke="#2D68FF" stroke-width="7"/>
<path d="M655.813 230V414L766.461 230H817.029H655.813Z" fill="#181D2A"/>
<path d="M820.015 230V-1008" stroke="white" stroke-width="7"/>
<path d="M711.044 426L826.981 219.5" stroke="white" stroke-width="7"/>
<path d="M0 414L717.513 412" stroke="white" stroke-width="7"/>
<path d="M0 89V412H49.7582V89H0Z" fill="#181D2A"/>
<mask id="mask2_634_98" style="mask-type:luminance" maskUnits="userSpaceOnUse" x="0" y="94" width="50" height="323">
<path d="M0 94V417H49.7582V94H0Z" fill="white"/>
</mask>
<g mask="url(#mask2_634_98)">
<path d="M49.7582 94V87H56.7243V94H49.7582ZM42.792 417V94H56.7243V417H42.792ZM49.7582 101H0V87H49.7582V101Z" fill="#2D68FF"/>
</g>
<path d="M4 414L0 -25" stroke="white" stroke-width="7"/>
<path d="M654.817 231H747.368" stroke="#2D68FF" stroke-width="7"/>
<path d="M812.551 231H742.392L632.924 417H708.059L812.551 231Z" fill="#181D2A" stroke="#FF3F3F" stroke-width="7"/>
</g>
<path d="M414.523 364V334.909H424.352C426.625 334.909 428.491 335.297 429.949 336.074C431.407 336.841 432.487 337.897 433.188 339.241C433.888 340.586 434.239 342.116 434.239 343.83C434.239 345.544 433.888 347.063 433.188 348.389C432.487 349.715 431.412 350.757 429.963 351.514C428.514 352.262 426.663 352.636 424.409 352.636H416.455V349.455H424.295C425.848 349.455 427.098 349.227 428.045 348.773C429.002 348.318 429.693 347.674 430.119 346.841C430.555 345.998 430.773 344.994 430.773 343.83C430.773 342.665 430.555 341.647 430.119 340.776C429.684 339.904 428.988 339.232 428.031 338.759C427.075 338.276 425.811 338.034 424.239 338.034H418.045V364H414.523ZM428.216 350.932L435.375 364H431.284L424.239 350.932H428.216ZM439.654 364V342.182H443.006V364H439.654ZM441.359 338.545C440.705 338.545 440.142 338.323 439.668 337.878C439.204 337.433 438.972 336.898 438.972 336.273C438.972 335.648 439.204 335.113 439.668 334.668C440.142 334.223 440.705 334 441.359 334C442.012 334 442.571 334.223 443.035 334.668C443.508 335.113 443.745 335.648 443.745 336.273C443.745 336.898 443.508 337.433 443.035 337.878C442.571 338.323 442.012 338.545 441.359 338.545ZM457.953 372.636C456.334 372.636 454.942 372.428 453.777 372.011C452.612 371.604 451.642 371.064 450.865 370.392C450.098 369.729 449.487 369.019 449.033 368.261L451.703 366.386C452.006 366.784 452.39 367.239 452.854 367.75C453.318 368.271 453.952 368.721 454.757 369.099C455.571 369.488 456.637 369.682 457.953 369.682C459.714 369.682 461.168 369.256 462.314 368.403C463.46 367.551 464.033 366.216 464.033 364.398V359.966H463.749C463.502 360.364 463.152 360.856 462.697 361.443C462.252 362.021 461.608 362.537 460.766 362.991C459.932 363.437 458.805 363.659 457.385 363.659C455.624 363.659 454.042 363.242 452.641 362.409C451.249 361.576 450.145 360.364 449.331 358.773C448.526 357.182 448.124 355.25 448.124 352.977C448.124 350.742 448.517 348.796 449.303 347.139C450.089 345.473 451.182 344.185 452.584 343.276C453.985 342.357 455.605 341.898 457.442 341.898C458.862 341.898 459.989 342.134 460.822 342.608C461.665 343.072 462.309 343.602 462.754 344.199C463.209 344.786 463.559 345.269 463.805 345.648H464.146V342.182H467.385V364.625C467.385 366.5 466.959 368.025 466.107 369.199C465.264 370.383 464.127 371.249 462.697 371.798C461.277 372.357 459.696 372.636 457.953 372.636ZM457.839 360.648C459.184 360.648 460.321 360.34 461.249 359.724C462.177 359.109 462.882 358.223 463.365 357.068C463.848 355.913 464.089 354.53 464.089 352.92C464.089 351.348 463.853 349.961 463.379 348.759C462.906 347.556 462.205 346.614 461.277 345.932C460.349 345.25 459.203 344.909 457.839 344.909C456.419 344.909 455.235 345.269 454.288 345.989C453.351 346.708 452.645 347.674 452.172 348.886C451.708 350.098 451.476 351.443 451.476 352.92C451.476 354.436 451.713 355.776 452.186 356.94C452.669 358.096 453.379 359.005 454.317 359.668C455.264 360.321 456.438 360.648 457.839 360.648ZM476.874 350.875V364H473.521V334.909H476.874V345.591H477.158C477.669 344.464 478.436 343.569 479.459 342.906C480.491 342.234 481.864 341.898 483.578 341.898C485.065 341.898 486.367 342.196 487.484 342.793C488.602 343.38 489.468 344.284 490.084 345.506C490.709 346.718 491.021 348.261 491.021 350.136V364H487.669V350.364C487.669 348.631 487.219 347.291 486.32 346.344C485.429 345.387 484.194 344.909 482.612 344.909C481.514 344.909 480.529 345.141 479.658 345.605C478.796 346.069 478.114 346.746 477.612 347.636C477.12 348.527 476.874 349.606 476.874 350.875ZM506.643 342.182V345.023H495.336V342.182H506.643ZM498.631 336.955H501.984V357.75C501.984 358.697 502.121 359.407 502.396 359.881C502.68 360.345 503.04 360.657 503.475 360.818C503.92 360.97 504.389 361.045 504.881 361.045C505.251 361.045 505.554 361.027 505.79 360.989C506.027 360.941 506.217 360.903 506.359 360.875L507.04 363.886C506.813 363.972 506.496 364.057 506.089 364.142C505.682 364.237 505.165 364.284 504.54 364.284C503.594 364.284 502.665 364.08 501.756 363.673C500.857 363.266 500.109 362.646 499.512 361.812C498.925 360.979 498.631 359.928 498.631 358.659V336.955Z" fill="white"/>
<path d="M221.523 270.909H225.727L235.614 295.057H235.955L245.841 270.909H250.045V300H246.75V277.898H246.466L237.375 300H234.193L225.102 277.898H224.818V300H221.523V270.909ZM256.654 300V278.182H260.006V300H256.654ZM258.359 274.545C257.705 274.545 257.142 274.323 256.668 273.878C256.204 273.433 255.972 272.898 255.972 272.273C255.972 271.648 256.204 271.113 256.668 270.668C257.142 270.223 257.705 270 258.359 270C259.012 270 259.571 270.223 260.035 270.668C260.508 271.113 260.745 271.648 260.745 272.273C260.745 272.898 260.508 273.433 260.035 273.878C259.571 274.323 259.012 274.545 258.359 274.545ZM274.385 300.455C272.567 300.455 270.962 299.995 269.57 299.077C268.178 298.149 267.089 296.842 266.303 295.156C265.517 293.461 265.124 291.458 265.124 289.148C265.124 286.856 265.517 284.867 266.303 283.182C267.089 281.496 268.182 280.194 269.584 279.276C270.985 278.357 272.605 277.898 274.442 277.898C275.862 277.898 276.984 278.134 277.808 278.608C278.642 279.072 279.276 279.602 279.712 280.199C280.157 280.786 280.502 281.269 280.749 281.648H281.033V270.909H284.385V300H281.146V296.648H280.749C280.502 297.045 280.152 297.547 279.697 298.153C279.243 298.75 278.594 299.285 277.751 299.759C276.909 300.223 275.786 300.455 274.385 300.455ZM274.839 297.443C276.184 297.443 277.321 297.093 278.249 296.392C279.177 295.682 279.882 294.702 280.365 293.452C280.848 292.192 281.089 290.739 281.089 289.091C281.089 287.462 280.853 286.037 280.379 284.815C279.906 283.584 279.205 282.628 278.277 281.946C277.349 281.255 276.203 280.909 274.839 280.909C273.419 280.909 272.235 281.274 271.288 282.003C270.351 282.723 269.645 283.703 269.172 284.943C268.708 286.174 268.476 287.557 268.476 289.091C268.476 290.644 268.713 292.055 269.186 293.324C269.669 294.583 270.379 295.587 271.317 296.335C272.264 297.074 273.438 297.443 274.839 297.443ZM299.229 300.455C297.411 300.455 295.805 299.995 294.413 299.077C293.021 298.149 291.932 296.842 291.146 295.156C290.36 293.461 289.967 291.458 289.967 289.148C289.967 286.856 290.36 284.867 291.146 283.182C291.932 281.496 293.026 280.194 294.428 279.276C295.829 278.357 297.448 277.898 299.286 277.898C300.706 277.898 301.828 278.134 302.652 278.608C303.485 279.072 304.12 279.602 304.555 280.199C305 280.786 305.346 281.269 305.592 281.648H305.876V270.909H309.229V300H305.99V296.648H305.592C305.346 297.045 304.996 297.547 304.541 298.153C304.087 298.75 303.438 299.285 302.595 299.759C301.752 300.223 300.63 300.455 299.229 300.455ZM299.683 297.443C301.028 297.443 302.164 297.093 303.092 296.392C304.02 295.682 304.726 294.702 305.209 293.452C305.692 292.192 305.933 290.739 305.933 289.091C305.933 287.462 305.696 286.037 305.223 284.815C304.75 283.584 304.049 282.628 303.121 281.946C302.193 281.255 301.047 280.909 299.683 280.909C298.263 280.909 297.079 281.274 296.132 282.003C295.195 282.723 294.489 283.703 294.016 284.943C293.552 286.174 293.32 287.557 293.32 289.091C293.32 290.644 293.556 292.055 294.03 293.324C294.513 294.583 295.223 295.587 296.161 296.335C297.107 297.074 298.282 297.443 299.683 297.443ZM319.186 270.909V300H315.834V270.909H319.186ZM334.474 300.455C332.371 300.455 330.558 299.991 329.033 299.062C327.518 298.125 326.349 296.818 325.525 295.142C324.71 293.456 324.303 291.496 324.303 289.261C324.303 287.027 324.71 285.057 325.525 283.352C326.349 281.638 327.495 280.303 328.962 279.347C330.44 278.381 332.163 277.898 334.133 277.898C335.269 277.898 336.391 278.087 337.499 278.466C338.607 278.845 339.616 279.46 340.525 280.312C341.434 281.155 342.158 282.273 342.698 283.665C343.238 285.057 343.508 286.771 343.508 288.807V290.227H326.69V287.33H340.099C340.099 286.098 339.853 285 339.36 284.034C338.877 283.068 338.186 282.306 337.286 281.747C336.396 281.188 335.345 280.909 334.133 280.909C332.798 280.909 331.642 281.241 330.667 281.903C329.701 282.557 328.958 283.409 328.437 284.46C327.916 285.511 327.656 286.638 327.656 287.841V289.773C327.656 291.42 327.94 292.817 328.508 293.963C329.085 295.099 329.886 295.966 330.908 296.562C331.931 297.15 333.12 297.443 334.474 297.443C335.354 297.443 336.15 297.32 336.86 297.074C337.58 296.818 338.2 296.439 338.721 295.938C339.242 295.426 339.644 294.792 339.928 294.034L343.167 294.943C342.826 296.042 342.253 297.008 341.448 297.841C340.643 298.665 339.649 299.309 338.465 299.773C337.281 300.227 335.951 300.455 334.474 300.455Z" fill="white"/>
<path d="M627.596 355.604C626.264 355.032 624.951 355.072 623.656 355.724C622.361 356.376 621.273 357.465 620.392 358.99C619.748 360.105 619.365 361.185 619.243 362.23C619.126 363.267 619.248 364.201 619.61 365.033C619.976 365.857 620.561 366.501 621.365 366.965C622.037 367.353 622.708 367.527 623.376 367.487C624.041 367.433 624.68 367.245 625.294 366.921C625.899 366.592 626.465 366.208 626.992 365.769C627.511 365.325 627.967 364.905 628.36 364.508L630.526 362.347C631.077 361.791 631.736 361.198 632.503 360.57C633.276 359.933 634.137 359.397 635.088 358.962C636.036 358.514 637.055 358.283 638.146 358.267C639.238 358.252 640.374 358.586 641.555 359.267C642.916 360.053 643.94 361.12 644.627 362.468C645.319 363.808 645.596 365.346 645.458 367.081C645.324 368.808 644.699 370.64 643.581 372.575C642.54 374.379 641.347 375.774 640.002 376.758C638.662 377.734 637.254 378.298 635.777 378.451C634.304 378.596 632.851 378.32 631.416 377.623L633.234 374.474C634.233 374.941 635.205 375.076 636.15 374.878C637.092 374.668 637.963 374.219 638.764 373.533C639.561 372.834 640.248 371.985 640.826 370.984C641.498 369.82 641.913 368.665 642.071 367.521C642.221 366.371 642.111 365.33 641.743 364.395C641.367 363.456 640.719 362.722 639.801 362.191C638.964 361.708 638.149 361.549 637.354 361.714C636.559 361.878 635.778 362.247 635.009 362.82C634.241 363.394 633.478 364.052 632.721 364.796L630.045 367.384C628.343 369.026 626.636 370.118 624.923 370.66C623.21 371.202 621.505 370.983 619.808 370.003C618.397 369.188 617.387 368.097 616.778 366.728C616.165 365.346 615.941 363.839 616.107 362.208C616.27 360.563 616.815 358.937 617.743 357.329C618.68 355.705 619.805 354.43 621.116 353.503C622.419 352.572 623.784 352.026 625.211 351.865C626.642 351.697 628.006 351.959 629.3 352.652L627.596 355.604ZM655.888 351.145C654.904 352.851 653.634 354.113 652.078 354.932C650.528 355.743 648.814 356.087 646.938 355.966C645.066 355.837 643.154 355.209 641.202 354.082C639.234 352.946 637.722 351.597 636.666 350.036C635.615 348.467 635.052 346.808 634.979 345.06C634.911 343.304 635.369 341.573 636.354 339.867C637.339 338.161 638.606 336.903 640.157 336.092C641.712 335.273 643.43 334.931 645.31 335.065C647.194 335.191 649.121 335.822 651.089 336.958C653.041 338.085 654.538 339.431 655.581 340.995C656.629 342.552 657.187 344.208 657.256 345.964C657.329 347.712 656.873 349.439 655.888 351.145ZM653.281 349.64C654.029 348.344 654.312 347.086 654.131 345.866C653.949 344.646 653.433 343.522 652.583 342.496C651.732 341.469 650.676 340.591 649.413 339.862C648.15 339.132 646.857 338.654 645.534 338.426C644.211 338.198 642.972 338.308 641.817 338.756C640.661 339.205 639.71 340.077 638.962 341.372C638.213 342.668 637.934 343.929 638.124 345.153C638.313 346.378 638.837 347.506 639.696 348.538C640.555 349.569 641.616 350.45 642.879 351.179C644.142 351.908 645.43 352.384 646.745 352.607C648.059 352.831 649.29 352.716 650.438 352.263C651.585 351.81 652.532 350.935 653.281 349.64ZM662.146 321.556L650.976 315.108L652.653 312.204L671.548 323.113L669.872 326.017L666.673 324.17L666.56 324.367C667.263 325.364 667.682 326.524 667.814 327.847C667.939 329.165 667.589 330.538 666.765 331.965C666.084 333.146 665.219 334.047 664.172 334.667C663.117 335.282 661.913 335.549 660.56 335.468C659.199 335.382 657.715 334.875 656.108 333.947L644.101 327.015L645.778 324.112L657.587 330.93C658.965 331.726 660.286 331.975 661.551 331.677C662.821 331.372 663.804 330.616 664.5 329.411C664.917 328.689 665.156 327.849 665.218 326.889C665.285 325.922 665.083 324.963 664.614 324.015C664.15 323.058 663.327 322.238 662.146 321.556ZM674.618 317.796L655.723 306.887L657.342 304.082L660.196 305.73L660.309 305.533C659.573 304.649 659.175 303.588 659.113 302.349C659.052 301.111 659.348 299.926 660.001 298.794C660.124 298.581 660.282 298.317 660.475 298.002C660.668 297.687 660.82 297.452 660.931 297.297L663.883 299.002C663.802 299.086 663.635 299.29 663.382 299.615C663.126 299.926 662.886 300.274 662.664 300.66C662.134 301.578 661.853 302.51 661.822 303.454C661.787 304.385 661.985 305.254 662.416 306.061C662.844 306.854 663.484 307.497 664.337 307.99L676.294 314.893L674.618 317.796ZM686.553 298.034C685.53 299.805 684.231 301.089 682.656 301.885C681.081 302.682 679.36 303.001 677.494 302.842C675.629 302.683 673.753 302.059 671.867 300.97C669.948 299.862 668.458 298.532 667.397 296.979C666.333 295.413 665.753 293.756 665.659 292.006C665.561 290.244 666.004 288.51 666.989 286.804C667.756 285.476 668.694 284.42 669.801 283.638C670.909 282.856 672.102 282.381 673.381 282.211C674.659 282.042 675.937 282.216 677.212 282.734L675.536 285.637C674.547 285.362 673.5 285.413 672.396 285.792C671.288 286.159 670.364 286.981 669.626 288.261C668.972 289.393 668.695 290.555 668.793 291.749C668.887 292.93 669.33 294.066 670.122 295.157C670.91 296.235 672.017 297.187 673.444 298.01C674.904 298.853 676.308 299.357 677.655 299.523C679.008 299.681 680.227 299.51 681.314 299.011C682.405 298.504 683.282 297.676 683.945 296.528C684.38 295.773 684.644 295.013 684.737 294.246C684.83 293.48 684.753 292.741 684.507 292.031C684.261 291.32 683.846 290.676 683.261 290.097L684.938 287.194C685.958 288.002 686.728 288.988 687.248 290.152C687.765 291.303 687.98 292.559 687.894 293.92C687.805 295.268 687.357 296.639 686.553 298.034ZM697.866 278.437C696.815 280.258 695.507 281.596 693.941 282.453C692.371 283.296 690.655 283.655 688.791 283.531C686.924 283.393 685.023 282.766 683.088 281.649C681.152 280.531 679.65 279.194 678.581 277.636C677.509 276.066 676.925 274.406 676.831 272.656C676.733 270.894 677.176 269.16 678.161 267.454C678.729 266.47 679.454 265.593 680.336 264.823C681.219 264.053 682.256 263.487 683.448 263.126C684.633 262.76 685.963 262.691 687.438 262.92C688.914 263.148 690.533 263.772 692.296 264.79L693.526 265.5L685.117 280.065L682.608 278.616L689.312 267.003C688.246 266.388 687.172 266.052 686.089 265.995C685.011 265.931 684.005 266.148 683.072 266.648C682.143 267.139 681.375 267.91 680.769 268.96C680.101 270.116 679.811 271.282 679.897 272.458C679.98 273.622 680.347 274.692 680.996 275.668C681.646 276.645 682.492 277.434 683.534 278.035L685.207 279.001C686.634 279.825 687.985 280.277 689.262 280.358C690.535 280.426 691.685 280.166 692.713 279.579C693.733 278.987 694.581 278.104 695.259 276.932C695.699 276.169 695.99 275.418 696.132 274.68C696.27 273.929 696.252 273.203 696.078 272.501C695.896 271.794 695.547 271.128 695.033 270.503L697.44 268.153C698.221 268.998 698.771 269.977 699.09 271.09C699.401 272.199 699.462 273.382 699.272 274.64C699.073 275.892 698.605 277.158 697.866 278.437Z" fill="white"/>
<path d="M78.5227 364V334.909H82.0455V360.875H95.5682V364H78.5227ZM109.716 364.455C107.614 364.455 105.8 363.991 104.276 363.062C102.76 362.125 101.591 360.818 100.767 359.142C99.9527 357.456 99.5455 355.496 99.5455 353.261C99.5455 351.027 99.9527 349.057 100.767 347.352C101.591 345.638 102.737 344.303 104.205 343.347C105.682 342.381 107.405 341.898 109.375 341.898C110.511 341.898 111.634 342.087 112.741 342.466C113.849 342.845 114.858 343.46 115.767 344.312C116.676 345.155 117.401 346.273 117.94 347.665C118.48 349.057 118.75 350.771 118.75 352.807V354.227H101.932V351.33H115.341C115.341 350.098 115.095 349 114.602 348.034C114.119 347.068 113.428 346.306 112.528 345.747C111.638 345.188 110.587 344.909 109.375 344.909C108.04 344.909 106.884 345.241 105.909 345.903C104.943 346.557 104.2 347.409 103.679 348.46C103.158 349.511 102.898 350.638 102.898 351.841V353.773C102.898 355.42 103.182 356.817 103.75 357.963C104.328 359.099 105.128 359.966 106.151 360.562C107.173 361.15 108.362 361.443 109.716 361.443C110.597 361.443 111.392 361.32 112.102 361.074C112.822 360.818 113.442 360.439 113.963 359.938C114.484 359.426 114.886 358.792 115.17 358.034L118.409 358.943C118.068 360.042 117.495 361.008 116.69 361.841C115.885 362.665 114.891 363.309 113.707 363.773C112.524 364.227 111.193 364.455 109.716 364.455ZM133.565 342.182V345.023H121.804V342.182H133.565ZM125.327 364V339.17C125.327 337.92 125.62 336.879 126.207 336.045C126.795 335.212 127.557 334.587 128.494 334.17C129.432 333.754 130.421 333.545 131.463 333.545C132.287 333.545 132.959 333.612 133.48 333.744C134.001 333.877 134.389 334 134.645 334.114L133.679 337.011C133.509 336.955 133.272 336.884 132.969 336.798C132.675 336.713 132.287 336.67 131.804 336.67C130.696 336.67 129.896 336.95 129.403 337.509C128.92 338.067 128.679 338.886 128.679 339.966V364H125.327ZM147.752 342.182V345.023H136.445V342.182H147.752ZM139.741 336.955H143.093V357.75C143.093 358.697 143.23 359.407 143.505 359.881C143.789 360.345 144.149 360.657 144.585 360.818C145.03 360.97 145.498 361.045 145.991 361.045C146.36 361.045 146.663 361.027 146.9 360.989C147.137 360.941 147.326 360.903 147.468 360.875L148.15 363.886C147.923 363.972 147.605 364.057 147.198 364.142C146.791 364.237 146.275 364.284 145.65 364.284C144.703 364.284 143.775 364.08 142.866 363.673C141.966 363.266 141.218 362.646 140.621 361.812C140.034 360.979 139.741 359.928 139.741 358.659V336.955Z" fill="white"/>
</svg>
