<svg width="823" height="417" viewBox="0 0 823 417" fill="none" xmlns="http://www.w3.org/2000/svg">
<mask id="mask0_634_98" style="mask-type:luminance" maskUnits="userSpaceOnUse" x="0" y="0" width="823" height="417">
<path d="M823 0V417H0V0H823Z" fill="white"/>
</mask>
<g mask="url(#mask0_634_98)">
<path d="M823 228V-170H0V228H823Z" fill="#181D2A"/>
<path d="M773.242 230V414H167.187V230H773.242Z" fill="#181D2A"/>
<mask id="mask1_634_98" style="mask-type:luminance" maskUnits="userSpaceOnUse" x="167" y="228" width="607" height="184">
<path d="M773.242 228V412H167.187V228H773.242Z" fill="white"/>
</mask>
<g mask="url(#mask1_634_98)">
<path d="M167.187 235H773.242V221H167.187V235Z" fill="#FF3F3F"/>
</g>
<path d="M278.646 -165H547.34L565.253 -139L426.925 95.5H388.611L256.752 -139L278.646 -165Z" fill="#1A1F2C" stroke="#FF3F3F" stroke-width="7"/>
<path d="M503.055 327L454.292 416.5H663.774L605.059 327H503.055Z" fill="#212430" stroke="#FF3F3F" stroke-width="7"/>
<path d="M167.187 230V414L56.539 230H5.97101H167.187Z" fill="#181D2A"/>
<path d="M2.98486 230V-1008" stroke="white" stroke-width="7"/>
<path d="M111.956 426L-3.98096 219.5" stroke="white" stroke-width="7"/>
<path d="M823 414L105.487 412" stroke="white" stroke-width="7"/>
<path d="M823 89V412H773.242V89H823Z" fill="#181D2A"/>
<mask id="mask2_634_98" style="mask-type:luminance" maskUnits="userSpaceOnUse" x="773" y="94" width="50" height="323">
<path d="M823 94V417H773.242V94H823Z" fill="white"/>
</mask>
<g mask="url(#mask2_634_98)">
<path d="M773.242 94V87H766.276V94H773.242ZM780.208 417V94H766.276V417H780.208ZM773.242 101H823V87H773.242V101Z" fill="#FF3F3F"/>
</g>
<path d="M819 414L823 -25" stroke="white" stroke-width="7"/>
<path d="M168.183 231H75.6321" stroke="#FF3F3F" stroke-width="7"/>
<path d="M10.4492 231H80.6082L190.076 417H114.941L10.4492 231Z" fill="#181D2A" stroke="#2D68FF" stroke-width="7"/>
</g>
<path d="M339.523 359V329.909H349.352C351.625 329.909 353.491 330.297 354.949 331.074C356.407 331.841 357.487 332.897 358.188 334.241C358.888 335.586 359.239 337.116 359.239 338.83C359.239 340.544 358.888 342.063 358.188 343.389C357.487 344.715 356.412 345.757 354.963 346.514C353.514 347.262 351.663 347.636 349.409 347.636H341.455V344.455H349.295C350.848 344.455 352.098 344.227 353.045 343.773C354.002 343.318 354.693 342.674 355.119 341.841C355.555 340.998 355.773 339.994 355.773 338.83C355.773 337.665 355.555 336.647 355.119 335.776C354.684 334.904 353.988 334.232 353.031 333.759C352.075 333.276 350.811 333.034 349.239 333.034H343.045V359H339.523ZM353.216 345.932L360.375 359H356.284L349.239 345.932H353.216ZM364.654 359V337.182H368.006V359H364.654ZM366.359 333.545C365.705 333.545 365.142 333.323 364.668 332.878C364.204 332.433 363.972 331.898 363.972 331.273C363.972 330.648 364.204 330.113 364.668 329.668C365.142 329.223 365.705 329 366.359 329C367.012 329 367.571 329.223 368.035 329.668C368.508 330.113 368.745 330.648 368.745 331.273C368.745 331.898 368.508 332.433 368.035 332.878C367.571 333.323 367.012 333.545 366.359 333.545ZM382.953 367.636C381.334 367.636 379.942 367.428 378.777 367.011C377.612 366.604 376.642 366.064 375.865 365.392C375.098 364.729 374.487 364.019 374.033 363.261L376.703 361.386C377.006 361.784 377.39 362.239 377.854 362.75C378.318 363.271 378.952 363.721 379.757 364.099C380.571 364.488 381.637 364.682 382.953 364.682C384.714 364.682 386.168 364.256 387.314 363.403C388.46 362.551 389.033 361.216 389.033 359.398V354.966H388.749C388.502 355.364 388.152 355.856 387.697 356.443C387.252 357.021 386.608 357.537 385.766 357.991C384.932 358.437 383.805 358.659 382.385 358.659C380.624 358.659 379.042 358.242 377.641 357.409C376.249 356.576 375.145 355.364 374.331 353.773C373.526 352.182 373.124 350.25 373.124 347.977C373.124 345.742 373.517 343.796 374.303 342.139C375.089 340.473 376.182 339.185 377.584 338.276C378.985 337.357 380.605 336.898 382.442 336.898C383.862 336.898 384.989 337.134 385.822 337.608C386.665 338.072 387.309 338.602 387.754 339.199C388.209 339.786 388.559 340.269 388.805 340.648H389.146V337.182H392.385V359.625C392.385 361.5 391.959 363.025 391.107 364.199C390.264 365.383 389.127 366.249 387.697 366.798C386.277 367.357 384.696 367.636 382.953 367.636ZM382.839 355.648C384.184 355.648 385.321 355.34 386.249 354.724C387.177 354.109 387.882 353.223 388.365 352.068C388.848 350.913 389.089 349.53 389.089 347.92C389.089 346.348 388.853 344.961 388.379 343.759C387.906 342.556 387.205 341.614 386.277 340.932C385.349 340.25 384.203 339.909 382.839 339.909C381.419 339.909 380.235 340.269 379.288 340.989C378.351 341.708 377.645 342.674 377.172 343.886C376.708 345.098 376.476 346.443 376.476 347.92C376.476 349.436 376.713 350.776 377.186 351.94C377.669 353.096 378.379 354.005 379.317 354.668C380.264 355.321 381.438 355.648 382.839 355.648ZM401.874 345.875V359H398.521V329.909H401.874V340.591H402.158C402.669 339.464 403.436 338.569 404.459 337.906C405.491 337.234 406.864 336.898 408.578 336.898C410.065 336.898 411.367 337.196 412.484 337.793C413.602 338.38 414.468 339.284 415.084 340.506C415.709 341.718 416.021 343.261 416.021 345.136V359H412.669V345.364C412.669 343.631 412.219 342.291 411.32 341.344C410.429 340.387 409.194 339.909 407.612 339.909C406.514 339.909 405.529 340.141 404.658 340.605C403.796 341.069 403.114 341.746 402.612 342.636C402.12 343.527 401.874 344.606 401.874 345.875ZM431.643 337.182V340.023H420.336V337.182H431.643ZM423.631 331.955H426.984V352.75C426.984 353.697 427.121 354.407 427.396 354.881C427.68 355.345 428.04 355.657 428.475 355.818C428.92 355.97 429.389 356.045 429.881 356.045C430.251 356.045 430.554 356.027 430.79 355.989C431.027 355.941 431.217 355.903 431.359 355.875L432.04 358.886C431.813 358.972 431.496 359.057 431.089 359.142C430.682 359.237 430.165 359.284 429.54 359.284C428.594 359.284 427.665 359.08 426.756 358.673C425.857 358.266 425.109 357.646 424.512 356.812C423.925 355.979 423.631 354.928 423.631 353.659V331.955Z" fill="white"/>
<path d="M494.056 277.909H498.26L508.147 302.057H508.488L518.374 277.909H522.579V307H519.283V284.898H518.999L509.908 307H506.726L497.635 284.898H497.351V307H494.056V277.909ZM529.187 307V285.182H532.54V307H529.187ZM530.892 281.545C530.238 281.545 529.675 281.323 529.202 280.878C528.738 280.433 528.506 279.898 528.506 279.273C528.506 278.648 528.738 278.113 529.202 277.668C529.675 277.222 530.238 277 530.892 277C531.545 277 532.104 277.222 532.568 277.668C533.041 278.113 533.278 278.648 533.278 279.273C533.278 279.898 533.041 280.433 532.568 280.878C532.104 281.323 531.545 281.545 530.892 281.545ZM546.918 307.454C545.1 307.454 543.495 306.995 542.103 306.077C540.711 305.149 539.622 303.842 538.836 302.156C538.05 300.461 537.657 298.458 537.657 296.148C537.657 293.856 538.05 291.867 538.836 290.182C539.622 288.496 540.715 287.194 542.117 286.276C543.519 285.357 545.138 284.898 546.975 284.898C548.395 284.898 549.518 285.134 550.341 285.608C551.175 286.072 551.809 286.602 552.245 287.199C552.69 287.786 553.036 288.269 553.282 288.648H553.566V277.909H556.918V307H553.68V303.648H553.282C553.036 304.045 552.685 304.547 552.231 305.153C551.776 305.75 551.127 306.285 550.285 306.758C549.442 307.222 548.32 307.454 546.918 307.454ZM547.373 304.443C548.717 304.443 549.854 304.093 550.782 303.392C551.71 302.682 552.415 301.702 552.898 300.452C553.381 299.192 553.623 297.739 553.623 296.091C553.623 294.462 553.386 293.037 552.912 291.815C552.439 290.584 551.738 289.628 550.81 288.946C549.882 288.255 548.736 287.909 547.373 287.909C545.952 287.909 544.769 288.274 543.822 289.003C542.884 289.722 542.179 290.703 541.705 291.943C541.241 293.174 541.009 294.557 541.009 296.091C541.009 297.644 541.246 299.055 541.719 300.324C542.202 301.583 542.912 302.587 543.85 303.335C544.797 304.074 545.971 304.443 547.373 304.443ZM571.762 307.454C569.944 307.454 568.339 306.995 566.947 306.077C565.555 305.149 564.465 303.842 563.68 302.156C562.894 300.461 562.501 298.458 562.501 296.148C562.501 293.856 562.894 291.867 563.68 290.182C564.465 288.496 565.559 287.194 566.961 286.276C568.362 285.357 569.982 284.898 571.819 284.898C573.239 284.898 574.361 285.134 575.185 285.608C576.019 286.072 576.653 286.602 577.089 287.199C577.534 287.786 577.879 288.269 578.126 288.648H578.41V277.909H581.762V307H578.523V303.648H578.126C577.879 304.045 577.529 304.547 577.074 305.153C576.62 305.75 575.971 306.285 575.128 306.758C574.286 307.222 573.163 307.454 571.762 307.454ZM572.216 304.443C573.561 304.443 574.698 304.093 575.626 303.392C576.554 302.682 577.259 301.702 577.742 300.452C578.225 299.192 578.466 297.739 578.466 296.091C578.466 294.462 578.23 293.037 577.756 291.815C577.283 290.584 576.582 289.628 575.654 288.946C574.726 288.255 573.58 287.909 572.216 287.909C570.796 287.909 569.612 288.274 568.665 289.003C567.728 289.722 567.022 290.703 566.549 291.943C566.085 293.174 565.853 294.557 565.853 296.091C565.853 297.644 566.09 299.055 566.563 300.324C567.046 301.583 567.756 302.587 568.694 303.335C569.641 304.074 570.815 304.443 572.216 304.443ZM591.719 277.909V307H588.367V277.909H591.719ZM607.007 307.454C604.905 307.454 603.091 306.99 601.567 306.062C600.051 305.125 598.882 303.818 598.058 302.142C597.244 300.456 596.836 298.496 596.836 296.261C596.836 294.026 597.244 292.057 598.058 290.352C598.882 288.638 600.028 287.303 601.496 286.347C602.973 285.381 604.696 284.898 606.666 284.898C607.802 284.898 608.925 285.087 610.032 285.466C611.14 285.845 612.149 286.46 613.058 287.312C613.967 288.155 614.692 289.273 615.231 290.665C615.771 292.057 616.041 293.771 616.041 295.807V297.227H599.223V294.329H612.632C612.632 293.098 612.386 292 611.893 291.034C611.41 290.068 610.719 289.306 609.819 288.747C608.929 288.188 607.878 287.909 606.666 287.909C605.331 287.909 604.175 288.24 603.2 288.903C602.234 289.557 601.491 290.409 600.97 291.46C600.449 292.511 600.189 293.638 600.189 294.841V296.773C600.189 298.42 600.473 299.817 601.041 300.963C601.619 302.099 602.419 302.966 603.442 303.562C604.464 304.15 605.653 304.443 607.007 304.443C607.888 304.443 608.683 304.32 609.393 304.074C610.113 303.818 610.733 303.439 611.254 302.937C611.775 302.426 612.177 301.792 612.461 301.034L615.7 301.943C615.359 303.042 614.786 304.008 613.981 304.841C613.176 305.665 612.182 306.309 610.998 306.773C609.815 307.227 608.484 307.454 607.007 307.454Z" fill="white"/>
<path d="M148.869 277.419C150.031 276.552 150.653 275.395 150.735 273.947C150.818 272.5 150.419 271.013 149.539 269.488C148.895 268.373 148.151 267.501 147.307 266.873C146.468 266.253 145.598 265.891 144.696 265.788C143.8 265.694 142.95 265.878 142.146 266.342C141.473 266.731 140.988 267.224 140.688 267.824C140.402 268.426 140.246 269.074 140.22 269.767C140.202 270.456 140.251 271.138 140.368 271.814C140.493 272.485 140.629 273.09 140.776 273.629L141.564 276.585C141.771 277.341 141.954 278.208 142.115 279.187C142.28 280.174 142.314 281.188 142.215 282.229C142.129 283.274 141.82 284.272 141.287 285.225C140.755 286.177 139.898 286.995 138.717 287.676C137.356 288.462 135.92 288.816 134.409 288.737C132.903 288.666 131.433 288.137 129.999 287.15C128.57 286.171 127.296 284.713 126.179 282.778C125.137 280.974 124.526 279.243 124.346 277.587C124.171 275.938 124.386 274.436 124.992 273.08C125.603 271.733 126.569 270.612 127.89 269.718L129.708 272.867C128.804 273.499 128.201 274.273 127.9 275.191C127.612 276.112 127.564 277.09 127.758 278.126C127.965 279.166 128.357 280.186 128.935 281.187C129.607 282.351 130.399 283.288 131.311 283.997C132.232 284.701 133.189 285.127 134.182 285.276C135.183 285.419 136.143 285.226 137.062 284.696C137.898 284.213 138.444 283.586 138.699 282.815C138.954 282.045 139.025 281.184 138.913 280.232C138.801 279.279 138.612 278.29 138.347 277.262L137.443 273.65C136.872 271.356 136.78 269.331 137.167 267.577C137.554 265.823 138.596 264.455 140.294 263.475C141.704 262.661 143.155 262.332 144.645 262.489C146.148 262.649 147.564 263.209 148.895 264.168C150.238 265.131 151.374 266.416 152.302 268.024C153.239 269.648 153.782 271.259 153.928 272.858C154.083 274.453 153.874 275.908 153.299 277.223C152.73 278.547 151.821 279.597 150.574 280.372L148.869 277.419ZM138.584 304.151C137.6 302.445 137.141 300.714 137.21 298.958C137.283 297.21 137.841 295.553 138.884 293.989C139.932 292.433 141.432 291.091 143.384 289.964C145.352 288.828 147.276 288.193 149.156 288.058C151.041 287.933 152.758 288.275 154.309 289.086C155.864 289.904 157.134 291.167 158.119 292.873C159.104 294.578 159.56 296.305 159.487 298.053C159.418 299.81 158.856 301.468 157.8 303.029C156.748 304.599 155.239 305.951 153.27 307.088C151.319 308.215 149.404 308.839 147.528 308.96C145.656 309.089 143.943 308.744 142.387 307.926C140.837 307.115 139.569 305.857 138.584 304.151ZM141.192 302.645C141.94 303.941 142.888 304.815 144.035 305.268C145.183 305.721 146.413 305.836 147.728 305.613C149.043 305.39 150.331 304.914 151.594 304.185C152.857 303.455 153.918 302.575 154.777 301.543C155.635 300.512 156.16 299.384 156.349 298.159C156.539 296.934 156.259 295.674 155.511 294.378C154.763 293.082 153.811 292.21 152.656 291.762C151.5 291.314 150.261 291.204 148.939 291.432C147.616 291.66 146.323 292.138 145.06 292.867C143.797 293.596 142.74 294.474 141.89 295.501C141.039 296.528 140.523 297.652 140.342 298.872C140.161 300.092 140.444 301.349 141.192 302.645ZM161.08 324.365L172.25 317.916L173.926 320.819L155.031 331.728L153.355 328.825L156.553 326.978L156.44 326.782C155.224 326.893 154.011 326.675 152.798 326.128C151.594 325.577 150.58 324.588 149.757 323.161C149.075 321.98 148.727 320.781 148.713 319.564C148.708 318.343 149.079 317.166 149.825 316.035C150.58 314.9 151.761 313.868 153.369 312.94L165.375 306.008L167.051 308.911L155.242 315.729C153.864 316.525 152.987 317.545 152.612 318.789C152.242 320.042 152.405 321.271 153.101 322.476C153.518 323.198 154.126 323.825 154.926 324.359C155.731 324.9 156.661 325.205 157.717 325.273C158.778 325.349 159.899 325.047 161.08 324.365ZM158.101 337.045L176.996 326.136L178.615 328.941L175.761 330.589L175.875 330.786C177.009 330.59 178.127 330.776 179.23 331.342C180.333 331.907 181.212 332.756 181.865 333.888C181.988 334.101 182.138 334.37 182.314 334.695C182.491 335.019 182.618 335.268 182.697 335.442L179.744 337.146C179.712 337.034 179.619 336.787 179.464 336.406C179.323 336.028 179.141 335.647 178.918 335.261C178.388 334.343 177.722 333.634 176.92 333.135C176.13 332.639 175.279 332.376 174.365 332.346C173.464 332.32 172.587 332.553 171.734 333.045L159.777 339.949L158.101 337.045ZM169.248 357.263C168.226 355.491 167.763 353.724 167.861 351.962C167.959 350.2 168.543 348.55 169.613 347.014C170.684 345.478 172.162 344.165 174.048 343.076C175.967 341.968 177.864 341.343 179.739 341.2C181.627 341.062 183.353 341.389 184.915 342.182C186.49 342.978 187.77 344.229 188.755 345.935C189.522 347.264 189.967 348.603 190.091 349.953C190.214 351.303 190.029 352.575 189.537 353.767C189.044 354.959 188.255 355.978 187.168 356.823L185.492 353.92C186.225 353.202 186.704 352.269 186.928 351.123C187.165 349.98 186.914 348.769 186.175 347.49C185.522 346.358 184.654 345.536 183.571 345.024C182.501 344.516 181.296 344.331 179.955 344.471C178.627 344.615 177.25 345.098 175.823 345.922C174.363 346.765 173.224 347.728 172.407 348.813C171.594 349.905 171.132 351.047 171.021 352.237C170.915 353.435 171.193 354.609 171.856 355.757C172.292 356.511 172.819 357.12 173.436 357.584C174.054 358.048 174.732 358.351 175.47 358.493C176.208 358.635 176.974 358.598 177.767 358.38L179.443 361.284C178.233 361.764 176.994 361.938 175.726 361.806C174.471 361.678 173.276 361.236 172.14 360.481C171.017 359.73 170.053 358.657 169.248 357.263ZM180.562 376.859C179.511 375.038 179.006 373.236 179.048 371.451C179.102 369.67 179.649 368.004 180.689 366.453C181.741 364.905 183.235 363.572 185.171 362.454C187.106 361.337 189.016 360.705 190.899 360.558C192.795 360.414 194.524 360.739 196.087 361.532C197.662 362.328 198.942 363.579 199.927 365.285C200.495 366.269 200.892 367.336 201.118 368.485C201.344 369.634 201.315 370.815 201.031 372.028C200.756 373.237 200.151 374.423 199.215 375.587C198.279 376.75 196.93 377.841 195.167 378.859L193.936 379.569L185.527 365.004L188.037 363.555L194.741 375.168C195.808 374.552 196.636 373.79 197.226 372.88C197.821 371.979 198.136 370.999 198.17 369.941C198.208 368.891 197.925 367.841 197.319 366.791C196.651 365.635 195.786 364.8 194.725 364.287C193.676 363.777 192.566 363.559 191.395 363.634C190.225 363.708 189.119 364.046 188.077 364.647L186.404 365.613C184.977 366.437 183.909 367.382 183.201 368.447C182.506 369.515 182.156 370.641 182.15 371.825C182.153 373.004 182.493 374.18 183.17 375.353C183.611 376.116 184.115 376.743 184.683 377.235C185.265 377.731 185.903 378.078 186.598 378.279C187.301 378.474 188.052 378.505 188.85 378.372L189.682 381.632C188.56 381.886 187.437 381.873 186.313 381.592C185.197 381.307 184.142 380.768 183.149 379.975C182.163 379.177 181.301 378.138 180.562 376.859Z" fill="white"/>
<path d="M670.056 367V337.909H673.579V363.875H687.101V367H670.056ZM701.249 367.454C699.147 367.454 697.333 366.99 695.809 366.062C694.294 365.125 693.124 363.818 692.3 362.142C691.486 360.456 691.079 358.496 691.079 356.261C691.079 354.026 691.486 352.057 692.3 350.352C693.124 348.638 694.27 347.303 695.738 346.347C697.215 345.381 698.939 344.898 700.908 344.898C702.045 344.898 703.167 345.087 704.275 345.466C705.383 345.845 706.391 346.46 707.3 347.312C708.209 348.155 708.934 349.273 709.474 350.665C710.013 352.057 710.283 353.771 710.283 355.807V357.227H693.465V354.329H706.874C706.874 353.098 706.628 352 706.135 351.034C705.653 350.068 704.961 349.306 704.062 348.747C703.171 348.188 702.12 347.909 700.908 347.909C699.573 347.909 698.418 348.24 697.442 348.903C696.476 349.557 695.733 350.409 695.212 351.46C694.691 352.511 694.431 353.638 694.431 354.841V356.773C694.431 358.42 694.715 359.817 695.283 360.963C695.861 362.099 696.661 362.966 697.684 363.562C698.706 364.15 699.895 364.443 701.249 364.443C702.13 364.443 702.925 364.32 703.635 364.074C704.355 363.818 704.975 363.439 705.496 362.937C706.017 362.426 706.42 361.792 706.704 361.034L709.942 361.943C709.601 363.042 709.028 364.008 708.224 364.841C707.419 365.665 706.424 366.309 705.241 366.773C704.057 367.227 702.726 367.454 701.249 367.454ZM725.099 345.182V348.023H713.337V345.182H725.099ZM716.86 367V342.17C716.86 340.92 717.153 339.879 717.741 339.045C718.328 338.212 719.09 337.587 720.028 337.17C720.965 336.754 721.955 336.545 722.996 336.545C723.82 336.545 724.492 336.612 725.013 336.744C725.534 336.877 725.922 337 726.178 337.114L725.212 340.011C725.042 339.954 724.805 339.883 724.502 339.798C724.208 339.713 723.82 339.67 723.337 339.67C722.229 339.67 721.429 339.95 720.937 340.508C720.454 341.067 720.212 341.886 720.212 342.966V367H716.86ZM739.285 345.182V348.023H727.979V345.182H739.285ZM731.274 339.954H734.626V360.75C734.626 361.697 734.764 362.407 735.038 362.881C735.322 363.345 735.682 363.657 736.118 363.818C736.563 363.97 737.032 364.045 737.524 364.045C737.893 364.045 738.196 364.026 738.433 363.989C738.67 363.941 738.859 363.903 739.001 363.875L739.683 366.886C739.456 366.972 739.139 367.057 738.731 367.142C738.324 367.237 737.808 367.284 737.183 367.284C736.236 367.284 735.308 367.08 734.399 366.673C733.499 366.266 732.751 365.646 732.155 364.812C731.568 363.979 731.274 362.928 731.274 361.659V339.954Z" fill="white"/>
</svg>
