<svg width="823" height="417" viewBox="0 0 823 417" fill="none" xmlns="http://www.w3.org/2000/svg">
<mask id="mask0_634_98" style="mask-type:luminance" maskUnits="userSpaceOnUse" x="0" y="0" width="823" height="417">
<path d="M823 0V417H0V0H823Z" fill="white"/>
</mask>
<g mask="url(#mask0_634_98)">
<path d="M823 228V-170H0V228H823Z" fill="#181D2A"/>
<path d="M773.242 230V414H167.187V230H773.242Z" fill="#181D2A"/>
<mask id="mask1_634_98" style="mask-type:luminance" maskUnits="userSpaceOnUse" x="167" y="228" width="607" height="184">
<path d="M773.242 228V412H167.187V228H773.242Z" fill="white"/>
</mask>
<g mask="url(#mask1_634_98)">
<path d="M167.187 235H773.242V221H167.187V235Z" fill="#FF3F3F"/>
</g>
<path d="M278.646 -165H547.34L565.253 -139L426.925 95.5H388.611L256.752 -139L278.646 -165Z" fill="#1A1F2C" stroke="#FF3F3F" stroke-width="7"/>
<path d="M503.055 327L454.292 416.5H663.774L605.059 327H503.055Z" fill="#212430" stroke="#FF3F3F" stroke-width="7"/>
<path d="M167.187 230V414L56.539 230H5.97101H167.187Z" fill="#181D2A"/>
<path d="M2.98486 230V-1008" stroke="white" stroke-width="7"/>
<path d="M111.956 426L-3.98096 219.5" stroke="white" stroke-width="7"/>
<path d="M823 414L105.487 412" stroke="white" stroke-width="7"/>
<path d="M823 89V412H773.242V89H823Z" fill="#181D2A"/>
<mask id="mask2_634_98" style="mask-type:luminance" maskUnits="userSpaceOnUse" x="773" y="94" width="50" height="323">
<path d="M823 94V417H773.242V94H823Z" fill="white"/>
</mask>
<g mask="url(#mask2_634_98)">
<path d="M773.242 94V87H766.276V94H773.242ZM780.208 417V94H766.276V417H780.208ZM773.242 101H823V87H773.242V101Z" fill="#FF3F3F"/>
</g>
<path d="M819 414L823 -25" stroke="white" stroke-width="7"/>
<path d="M168.183 231H75.6321" stroke="#FF3F3F" stroke-width="7"/>
<path d="M10.4492 231H80.6082L190.076 417H114.941L10.4492 231Z" fill="#181D2A" stroke="#2D68FF" stroke-width="7"/>
</g>
<path d="M494.056 277.909H498.26L508.147 302.057H508.488L518.374 277.909H522.579V307H519.283V284.898H518.999L509.908 307H506.726L497.635 284.898H497.351V307H494.056V277.909ZM529.187 307V285.182H532.54V307H529.187ZM530.892 281.545C530.238 281.545 529.675 281.323 529.202 280.878C528.738 280.433 528.506 279.898 528.506 279.273C528.506 278.648 528.738 278.113 529.202 277.668C529.675 277.222 530.238 277 530.892 277C531.545 277 532.104 277.222 532.568 277.668C533.041 278.113 533.278 278.648 533.278 279.273C533.278 279.898 533.041 280.433 532.568 280.878C532.104 281.323 531.545 281.545 530.892 281.545ZM546.918 307.454C545.1 307.454 543.495 306.995 542.103 306.077C540.711 305.149 539.622 303.842 538.836 302.156C538.05 300.461 537.657 298.458 537.657 296.148C537.657 293.856 538.05 291.867 538.836 290.182C539.622 288.496 540.715 287.194 542.117 286.276C543.519 285.357 545.138 284.898 546.975 284.898C548.395 284.898 549.518 285.134 550.341 285.608C551.175 286.072 551.809 286.602 552.245 287.199C552.69 287.786 553.036 288.269 553.282 288.648H553.566V277.909H556.918V307H553.68V303.648H553.282C553.036 304.045 552.685 304.547 552.231 305.153C551.776 305.75 551.127 306.285 550.285 306.758C549.442 307.222 548.32 307.454 546.918 307.454ZM547.373 304.443C548.717 304.443 549.854 304.093 550.782 303.392C551.71 302.682 552.415 301.702 552.898 300.452C553.381 299.192 553.623 297.739 553.623 296.091C553.623 294.462 553.386 293.037 552.912 291.815C552.439 290.584 551.738 289.628 550.81 288.946C549.882 288.255 548.736 287.909 547.373 287.909C545.952 287.909 544.769 288.274 543.822 289.003C542.884 289.722 542.179 290.703 541.705 291.943C541.241 293.174 541.009 294.557 541.009 296.091C541.009 297.644 541.246 299.055 541.719 300.324C542.202 301.583 542.912 302.587 543.85 303.335C544.797 304.074 545.971 304.443 547.373 304.443ZM571.762 307.454C569.944 307.454 568.339 306.995 566.947 306.077C565.555 305.149 564.465 303.842 563.68 302.156C562.894 300.461 562.501 298.458 562.501 296.148C562.501 293.856 562.894 291.867 563.68 290.182C564.465 288.496 565.559 287.194 566.961 286.276C568.362 285.357 569.982 284.898 571.819 284.898C573.239 284.898 574.361 285.134 575.185 285.608C576.019 286.072 576.653 286.602 577.089 287.199C577.534 287.786 577.879 288.269 578.126 288.648H578.41V277.909H581.762V307H578.523V303.648H578.126C577.879 304.045 577.529 304.547 577.074 305.153C576.62 305.75 575.971 306.285 575.128 306.758C574.286 307.222 573.163 307.454 571.762 307.454ZM572.216 304.443C573.561 304.443 574.698 304.093 575.626 303.392C576.554 302.682 577.259 301.702 577.742 300.452C578.225 299.192 578.466 297.739 578.466 296.091C578.466 294.462 578.23 293.037 577.756 291.815C577.283 290.584 576.582 289.628 575.654 288.946C574.726 288.255 573.58 287.909 572.216 287.909C570.796 287.909 569.612 288.274 568.665 289.003C567.728 289.722 567.022 290.703 566.549 291.943C566.085 293.174 565.853 294.557 565.853 296.091C565.853 297.644 566.09 299.055 566.563 300.324C567.046 301.583 567.756 302.587 568.694 303.335C569.641 304.074 570.815 304.443 572.216 304.443ZM591.719 277.909V307H588.367V277.909H591.719ZM607.007 307.454C604.905 307.454 603.091 306.99 601.567 306.062C600.051 305.125 598.882 303.818 598.058 302.142C597.244 300.456 596.836 298.496 596.836 296.261C596.836 294.026 597.244 292.057 598.058 290.352C598.882 288.638 600.028 287.303 601.496 286.347C602.973 285.381 604.696 284.898 606.666 284.898C607.802 284.898 608.925 285.087 610.032 285.466C611.14 285.845 612.149 286.46 613.058 287.312C613.967 288.155 614.692 289.273 615.231 290.665C615.771 292.057 616.041 293.771 616.041 295.807V297.227H599.223V294.329H612.632C612.632 293.098 612.386 292 611.893 291.034C611.41 290.068 610.719 289.306 609.819 288.747C608.929 288.188 607.878 287.909 606.666 287.909C605.331 287.909 604.175 288.24 603.2 288.903C602.234 289.557 601.491 290.409 600.97 291.46C600.449 292.511 600.189 293.638 600.189 294.841V296.773C600.189 298.42 600.473 299.817 601.041 300.963C601.619 302.099 602.419 302.966 603.442 303.562C604.464 304.15 605.653 304.443 607.007 304.443C607.888 304.443 608.683 304.32 609.393 304.074C610.113 303.818 610.733 303.439 611.254 302.937C611.775 302.426 612.177 301.792 612.461 301.034L615.7 301.943C615.359 303.042 614.786 304.008 613.981 304.841C613.176 305.665 612.182 306.309 610.998 306.773C609.815 307.227 608.484 307.454 607.007 307.454Z" fill="white"/>
<path d="M148.869 277.419C150.031 276.552 150.653 275.395 150.735 273.947C150.818 272.5 150.419 271.013 149.539 269.488C148.895 268.373 148.151 267.501 147.307 266.873C146.468 266.253 145.598 265.891 144.696 265.788C143.8 265.694 142.95 265.878 142.146 266.342C141.473 266.731 140.988 267.224 140.688 267.824C140.402 268.426 140.246 269.074 140.22 269.767C140.202 270.456 140.251 271.138 140.368 271.814C140.493 272.485 140.629 273.09 140.776 273.629L141.564 276.585C141.771 277.341 141.954 278.208 142.115 279.187C142.28 280.174 142.314 281.188 142.215 282.229C142.129 283.274 141.82 284.272 141.287 285.225C140.755 286.177 139.898 286.995 138.717 287.676C137.356 288.462 135.92 288.816 134.409 288.737C132.903 288.666 131.433 288.137 129.999 287.15C128.57 286.171 127.296 284.713 126.179 282.778C125.137 280.974 124.526 279.243 124.346 277.587C124.171 275.938 124.386 274.436 124.992 273.08C125.603 271.733 126.569 270.612 127.89 269.718L129.708 272.867C128.804 273.499 128.201 274.273 127.9 275.191C127.612 276.112 127.564 277.09 127.758 278.126C127.965 279.166 128.357 280.186 128.935 281.187C129.607 282.351 130.399 283.288 131.311 283.997C132.232 284.701 133.189 285.127 134.182 285.276C135.183 285.419 136.143 285.226 137.062 284.696C137.898 284.213 138.444 283.586 138.699 282.815C138.954 282.045 139.025 281.184 138.913 280.232C138.801 279.279 138.612 278.29 138.347 277.262L137.443 273.65C136.872 271.356 136.78 269.331 137.167 267.577C137.554 265.823 138.596 264.455 140.294 263.475C141.704 262.661 143.155 262.332 144.645 262.489C146.148 262.649 147.564 263.209 148.895 264.168C150.238 265.131 151.374 266.416 152.302 268.024C153.239 269.648 153.782 271.259 153.928 272.858C154.083 274.453 153.874 275.908 153.299 277.223C152.73 278.547 151.821 279.597 150.574 280.372L148.869 277.419ZM138.584 304.151C137.6 302.445 137.141 300.714 137.21 298.958C137.283 297.21 137.841 295.553 138.884 293.989C139.932 292.433 141.432 291.091 143.384 289.964C145.352 288.828 147.276 288.193 149.156 288.058C151.041 287.933 152.758 288.275 154.309 289.086C155.864 289.904 157.134 291.167 158.119 292.873C159.104 294.578 159.56 296.305 159.487 298.053C159.418 299.81 158.856 301.468 157.8 303.029C156.748 304.599 155.239 305.951 153.27 307.088C151.319 308.215 149.404 308.839 147.528 308.96C145.656 309.089 143.943 308.744 142.387 307.926C140.837 307.115 139.569 305.857 138.584 304.151ZM141.192 302.645C141.94 303.941 142.888 304.815 144.035 305.268C145.183 305.721 146.413 305.836 147.728 305.613C149.043 305.39 150.331 304.914 151.594 304.185C152.857 303.455 153.918 302.575 154.777 301.543C155.635 300.512 156.16 299.384 156.349 298.159C156.539 296.934 156.259 295.674 155.511 294.378C154.763 293.082 153.811 292.21 152.656 291.762C151.5 291.314 150.261 291.204 148.939 291.432C147.616 291.66 146.323 292.138 145.06 292.867C143.797 293.596 142.74 294.474 141.89 295.501C141.039 296.528 140.523 297.652 140.342 298.872C140.161 300.092 140.444 301.349 141.192 302.645ZM161.08 324.365L172.25 317.916L173.926 320.819L155.031 331.728L153.355 328.825L156.553 326.978L156.44 326.782C155.224 326.893 154.011 326.675 152.798 326.128C151.594 325.577 150.58 324.588 149.757 323.161C149.075 321.98 148.727 320.781 148.713 319.564C148.708 318.343 149.079 317.166 149.825 316.035C150.58 314.9 151.761 313.868 153.369 312.94L165.375 306.008L167.051 308.911L155.242 315.729C153.864 316.525 152.987 317.545 152.612 318.789C152.242 320.042 152.405 321.271 153.101 322.476C153.518 323.198 154.126 323.825 154.926 324.359C155.731 324.9 156.661 325.205 157.717 325.273C158.778 325.349 159.899 325.047 161.08 324.365ZM158.101 337.045L176.996 326.136L178.615 328.941L175.761 330.589L175.875 330.786C177.009 330.59 178.127 330.776 179.23 331.342C180.333 331.907 181.212 332.756 181.865 333.888C181.988 334.101 182.138 334.37 182.314 334.695C182.491 335.019 182.618 335.268 182.697 335.442L179.744 337.146C179.712 337.034 179.619 336.787 179.464 336.406C179.323 336.028 179.141 335.647 178.918 335.261C178.388 334.343 177.722 333.634 176.92 333.135C176.13 332.639 175.279 332.376 174.365 332.346C173.464 332.32 172.587 332.553 171.734 333.045L159.777 339.949L158.101 337.045ZM169.248 357.263C168.226 355.491 167.763 353.724 167.861 351.962C167.959 350.2 168.543 348.55 169.613 347.014C170.684 345.478 172.162 344.165 174.048 343.076C175.967 341.968 177.864 341.343 179.739 341.2C181.627 341.062 183.353 341.389 184.915 342.182C186.49 342.978 187.77 344.229 188.755 345.935C189.522 347.264 189.967 348.603 190.091 349.953C190.214 351.303 190.029 352.575 189.537 353.767C189.044 354.959 188.255 355.978 187.168 356.823L185.492 353.92C186.225 353.202 186.704 352.269 186.928 351.123C187.165 349.98 186.914 348.769 186.175 347.49C185.522 346.358 184.654 345.536 183.571 345.024C182.501 344.516 181.296 344.331 179.955 344.471C178.627 344.615 177.25 345.098 175.823 345.922C174.363 346.765 173.224 347.728 172.407 348.813C171.594 349.905 171.132 351.047 171.021 352.237C170.915 353.435 171.193 354.609 171.856 355.757C172.292 356.511 172.819 357.12 173.436 357.584C174.054 358.048 174.732 358.351 175.47 358.493C176.208 358.635 176.974 358.598 177.767 358.38L179.443 361.284C178.233 361.764 176.994 361.938 175.726 361.806C174.471 361.678 173.276 361.236 172.14 360.481C171.017 359.73 170.053 358.657 169.248 357.263ZM180.562 376.859C179.511 375.038 179.006 373.236 179.048 371.451C179.102 369.67 179.649 368.004 180.689 366.453C181.741 364.905 183.235 363.572 185.171 362.454C187.106 361.337 189.016 360.705 190.899 360.558C192.795 360.414 194.524 360.739 196.087 361.532C197.662 362.328 198.942 363.579 199.927 365.285C200.495 366.269 200.892 367.336 201.118 368.485C201.344 369.634 201.315 370.815 201.031 372.028C200.756 373.237 200.151 374.423 199.215 375.587C198.279 376.75 196.93 377.841 195.167 378.859L193.936 379.569L185.527 365.004L188.037 363.555L194.741 375.168C195.808 374.552 196.636 373.79 197.226 372.88C197.821 371.979 198.136 370.999 198.17 369.941C198.208 368.891 197.925 367.841 197.319 366.791C196.651 365.635 195.786 364.8 194.725 364.287C193.676 363.777 192.566 363.559 191.395 363.634C190.225 363.708 189.119 364.046 188.077 364.647L186.404 365.613C184.977 366.437 183.909 367.382 183.201 368.447C182.506 369.515 182.156 370.641 182.15 371.825C182.153 373.004 182.493 374.18 183.17 375.353C183.611 376.116 184.115 376.743 184.683 377.235C185.265 377.731 185.903 378.078 186.598 378.279C187.301 378.474 188.052 378.505 188.85 378.372L189.682 381.632C188.56 381.886 187.437 381.873 186.313 381.592C185.197 381.307 184.142 380.768 183.149 379.975C182.163 379.177 181.301 378.138 180.562 376.859Z" fill="white"/>
<path d="M339.523 366V336.909H343.045V362.875H356.568V366H339.523ZM370.716 366.455C368.614 366.455 366.8 365.991 365.276 365.062C363.76 364.125 362.591 362.818 361.767 361.142C360.953 359.456 360.545 357.496 360.545 355.261C360.545 353.027 360.953 351.057 361.767 349.352C362.591 347.638 363.737 346.303 365.205 345.347C366.682 344.381 368.405 343.898 370.375 343.898C371.511 343.898 372.634 344.087 373.741 344.466C374.849 344.845 375.858 345.46 376.767 346.312C377.676 347.155 378.401 348.273 378.94 349.665C379.48 351.057 379.75 352.771 379.75 354.807V356.227H362.932V353.33H376.341C376.341 352.098 376.095 351 375.602 350.034C375.119 349.068 374.428 348.306 373.528 347.747C372.638 347.188 371.587 346.909 370.375 346.909C369.04 346.909 367.884 347.241 366.909 347.903C365.943 348.557 365.2 349.409 364.679 350.46C364.158 351.511 363.898 352.638 363.898 353.841V355.773C363.898 357.42 364.182 358.817 364.75 359.963C365.328 361.099 366.128 361.966 367.151 362.562C368.173 363.15 369.362 363.443 370.716 363.443C371.597 363.443 372.392 363.32 373.102 363.074C373.822 362.818 374.442 362.439 374.963 361.938C375.484 361.426 375.886 360.792 376.17 360.034L379.409 360.943C379.068 362.042 378.495 363.008 377.69 363.841C376.885 364.665 375.891 365.309 374.707 365.773C373.524 366.227 372.193 366.455 370.716 366.455ZM394.565 344.182V347.023H382.804V344.182H394.565ZM386.327 366V341.17C386.327 339.92 386.62 338.879 387.207 338.045C387.795 337.212 388.557 336.587 389.494 336.17C390.432 335.754 391.421 335.545 392.463 335.545C393.287 335.545 393.959 335.612 394.48 335.744C395.001 335.877 395.389 336 395.645 336.114L394.679 339.011C394.509 338.955 394.272 338.884 393.969 338.798C393.675 338.713 393.287 338.67 392.804 338.67C391.696 338.67 390.896 338.95 390.403 339.509C389.92 340.067 389.679 340.886 389.679 341.966V366H386.327ZM408.752 344.182V347.023H397.445V344.182H408.752ZM400.741 338.955H404.093V359.75C404.093 360.697 404.23 361.407 404.505 361.881C404.789 362.345 405.149 362.657 405.585 362.818C406.03 362.97 406.498 363.045 406.991 363.045C407.36 363.045 407.663 363.027 407.9 362.989C408.137 362.941 408.326 362.903 408.468 362.875L409.15 365.886C408.923 365.972 408.605 366.057 408.198 366.142C407.791 366.237 407.275 366.284 406.65 366.284C405.703 366.284 404.775 366.08 403.866 365.673C402.966 365.266 402.218 364.646 401.621 363.812C401.034 362.979 400.741 361.928 400.741 360.659V338.955Z" fill="white"/>
<path d="M660.523 366V336.909H670.352C672.625 336.909 674.491 337.297 675.949 338.074C677.407 338.841 678.487 339.897 679.188 341.241C679.888 342.586 680.239 344.116 680.239 345.83C680.239 347.544 679.888 349.063 679.188 350.389C678.487 351.715 677.412 352.757 675.963 353.514C674.514 354.262 672.663 354.636 670.409 354.636H662.455V351.455H670.295C671.848 351.455 673.098 351.227 674.045 350.773C675.002 350.318 675.693 349.674 676.119 348.841C676.555 347.998 676.773 346.994 676.773 345.83C676.773 344.665 676.555 343.647 676.119 342.776C675.684 341.904 674.988 341.232 674.031 340.759C673.075 340.276 671.811 340.034 670.239 340.034H664.045V366H660.523ZM674.216 352.932L681.375 366H677.284L670.239 352.932H674.216ZM685.654 366V344.182H689.006V366H685.654ZM687.359 340.545C686.705 340.545 686.142 340.323 685.668 339.878C685.204 339.433 684.972 338.898 684.972 338.273C684.972 337.648 685.204 337.113 685.668 336.668C686.142 336.223 686.705 336 687.359 336C688.012 336 688.571 336.223 689.035 336.668C689.508 337.113 689.745 337.648 689.745 338.273C689.745 338.898 689.508 339.433 689.035 339.878C688.571 340.323 688.012 340.545 687.359 340.545ZM703.953 374.636C702.334 374.636 700.942 374.428 699.777 374.011C698.612 373.604 697.642 373.064 696.865 372.392C696.098 371.729 695.487 371.019 695.033 370.261L697.703 368.386C698.006 368.784 698.39 369.239 698.854 369.75C699.318 370.271 699.952 370.721 700.757 371.099C701.571 371.488 702.637 371.682 703.953 371.682C705.714 371.682 707.168 371.256 708.314 370.403C709.46 369.551 710.033 368.216 710.033 366.398V361.966H709.749C709.502 362.364 709.152 362.856 708.697 363.443C708.252 364.021 707.608 364.537 706.766 364.991C705.932 365.437 704.805 365.659 703.385 365.659C701.624 365.659 700.042 365.242 698.641 364.409C697.249 363.576 696.145 362.364 695.331 360.773C694.526 359.182 694.124 357.25 694.124 354.977C694.124 352.742 694.517 350.796 695.303 349.139C696.089 347.473 697.182 346.185 698.584 345.276C699.985 344.357 701.605 343.898 703.442 343.898C704.862 343.898 705.989 344.134 706.822 344.608C707.665 345.072 708.309 345.602 708.754 346.199C709.209 346.786 709.559 347.269 709.805 347.648H710.146V344.182H713.385V366.625C713.385 368.5 712.959 370.025 712.107 371.199C711.264 372.383 710.127 373.249 708.697 373.798C707.277 374.357 705.696 374.636 703.953 374.636ZM703.839 362.648C705.184 362.648 706.321 362.34 707.249 361.724C708.177 361.109 708.882 360.223 709.365 359.068C709.848 357.913 710.089 356.53 710.089 354.92C710.089 353.348 709.853 351.961 709.379 350.759C708.906 349.556 708.205 348.614 707.277 347.932C706.349 347.25 705.203 346.909 703.839 346.909C702.419 346.909 701.235 347.269 700.288 347.989C699.351 348.708 698.645 349.674 698.172 350.886C697.708 352.098 697.476 353.443 697.476 354.92C697.476 356.436 697.713 357.776 698.186 358.94C698.669 360.096 699.379 361.005 700.317 361.668C701.264 362.321 702.438 362.648 703.839 362.648ZM722.874 352.875V366H719.521V336.909H722.874V347.591H723.158C723.669 346.464 724.436 345.569 725.459 344.906C726.491 344.234 727.864 343.898 729.578 343.898C731.065 343.898 732.367 344.196 733.484 344.793C734.602 345.38 735.468 346.284 736.084 347.506C736.709 348.718 737.021 350.261 737.021 352.136V366H733.669V352.364C733.669 350.631 733.219 349.291 732.32 348.344C731.429 347.387 730.194 346.909 728.612 346.909C727.514 346.909 726.529 347.141 725.658 347.605C724.796 348.069 724.114 348.746 723.612 349.636C723.12 350.527 722.874 351.606 722.874 352.875ZM752.643 344.182V347.023H741.336V344.182H752.643ZM744.631 338.955H747.984V359.75C747.984 360.697 748.121 361.407 748.396 361.881C748.68 362.345 749.04 362.657 749.475 362.818C749.92 362.97 750.389 363.045 750.881 363.045C751.251 363.045 751.554 363.027 751.79 362.989C752.027 362.941 752.217 362.903 752.359 362.875L753.04 365.886C752.813 365.972 752.496 366.057 752.089 366.142C751.682 366.237 751.165 366.284 750.54 366.284C749.594 366.284 748.665 366.08 747.756 365.673C746.857 365.266 746.109 364.646 745.512 363.812C744.925 362.979 744.631 361.928 744.631 360.659V338.955Z" fill="white"/>
</svg>
