<svg width="32" height="32" viewBox="0 0 32 32" fill="none" xmlns="http://www.w3.org/2000/svg">
<g id="redo_FILL0_wght400_GRAD0_opsz24 (1) 1">
<path id="Vector" d="M18.8 25.3333C20.9555 25.3333 22.8055 24.6333 24.35 23.2333C25.8944 21.8333 26.6666 20.0889 26.6666 18C26.6666 15.9111 25.8944 14.1667 24.35 12.7667C22.8055 11.3667 20.9555 10.6667 18.8 10.6667H10.4L13.8666 7.2L12 5.33333L5.33329 12L12 18.6667L13.8666 16.8L10.4 13.3333H18.8C20.2 13.3333 21.4166 13.7778 22.45 14.6667C23.4833 15.5556 24 16.6667 24 18C24 19.3333 23.4833 20.4444 22.45 21.3333C21.4166 22.2222 20.2 22.6667 18.8 22.6667H9.33329V25.3333H18.8Z" fill="white" fill-opacity="0.7"/>
</g>
</svg>
